<?xml version="1.0" standalone="no"?>
<!DOCTYPE svg PUBLIC "-//W3C//DTD SVG 20010904//EN"
 "http://www.w3.org/TR/2001/REC-SVG-20010904/DTD/svg10.dtd">
<svg version="1.0" xmlns="http://www.w3.org/2000/svg"
 width="512.000000pt" height="512.000000pt" viewBox="0 0 512.000000 512.000000"
 preserveAspectRatio="xMidYMid meet">
<metadata>
Created by potrace 1.11, written by Peter Selinger 2001-2013
</metadata>
<g transform="translate(0.000000,512.000000) scale(0.100000,-0.100000)"
fill="#000000" stroke="none">
<path d="M1155 3598 c-227 -25 -473 -146 -646 -318 -211 -210 -312 -463 -296
-739 14 -238 110 -443 289 -617 125 -122 242 -194 403 -249 44 -15 87 -29 95
-32 57 -20 327 -25 420 -8 219 39 396 110 578 232 113 75 362 320 362 355 0
27 -17 48 -39 48 -8 0 -57 -42 -110 -93 -94 -90 -191 -170 -248 -202 -15 -8
-44 -25 -63 -37 -247 -148 -569 -207 -816 -148 -278 66 -534 294 -615 549 -27
83 -36 247 -19 333 59 304 328 550 664 609 253 43 556 -83 839 -352 136 -128
304 -327 395 -466 169 -260 416 -514 657 -675 182 -122 419 -220 611 -253 103
-18 344 -26 344 -12 0 5 4 6 9 3 5 -3 61 7 124 23 300 76 538 249 687 499 155
262 171 616 41 889 -54 112 -112 195 -196 278 -129 130 -311 234 -494 283
-132 35 -344 36 -501 3 -317 -67 -615 -248 -825 -500 -74 -89 -79 -102 -53
-131 18 -19 22 -20 36 -6 10 9 55 52 102 97 109 104 200 172 325 242 206 116
364 155 630 158 288 3 600 -191 730 -454 100 -203 101 -420 3 -627 -34 -72
-55 -99 -137 -181 -82 -80 -112 -102 -192 -142 -138 -67 -199 -81 -359 -82
-160 0 -215 13 -368 86 -183 88 -349 219 -525 414 -94 105 -144 169 -317 406
-139 190 -360 403 -552 531 -123 82 -119 80 -218 128 -271 133 -514 184 -755
158z"/>
</g>
</svg>
